<?xml version="1.0" encoding="UTF-8"?>
<svg xmlns="http://www.w3.org/2000/svg" xmlns:xlink="http://www.w3.org/1999/xlink" xml:space="preserve" width="210mm" height="297mm" version="1.1" style="shape-rendering:geometricPrecision; text-rendering:geometricPrecision; image-rendering:optimizeQuality; fill-rule:evenodd; clip-rule:evenodd" viewBox="0 0 21000 29700">
 <defs>
  <style type="text/css">
   
    .str0 {stroke:#2B2A29;stroke-width:70.56}
    .str1 {stroke:#E5332B;stroke-width:70.56}
    .fil0 {fill:#2B2A29}
    .fil1 {fill:#E5332B}
   
  </style>
 </defs>
 <g id="Layer_x0020_1">
  <metadata id="CorelCorpID_0Corel-Layer"></metadata>
  <g id="_1699892903728">
   <g>
    <path class="fil0 str0" d="M1170 14498c-25,33 -46,14 -45,-15 7,-150 82,-302 304,-310 302,-14 351,149 559,137 121,-11 212,-66 278,-153 18,-21 36,-19 40,18 9,169 -112,319 -331,319 -265,4 -328,-164 -537,-142 -63,3 -162,22 -268,146z"></path>
    <path class="fil0 str0" d="M1138 15644c-26,33 -47,14 -46,-15 7,-150 82,-302 304,-310 303,-14 351,149 559,137 122,-11 213,-66 278,-153 18,-21 36,-19 40,18 9,169 -111,320 -330,320 -265,4 -329,-165 -538,-143 -63,3 -162,22 -267,146z"></path>
    <polygon class="fil0 str0" points="1300,15337 1883,14474 2101,14474 1517,15336 "></polygon>
   </g>
   <path class="fil1 str1" d="M2795 15434c7,43 -22,45 -44,24 -110,-110 -174,-274 -25,-450 200,-242 359,-165 495,-333 77,-101 98,-209 78,-320 -5,-29 10,-42 41,-19 136,112 167,309 14,477 -182,207 -355,138 -484,313 -42,50 -97,140 -75,308z"></path>
   <path class="fil0 str0" d="M3225 14146c308,0 479,339 380,754 -99,415 -430,754 -738,754 -309,0 -479,-339 -380,-754 98,-415 430,-754 738,-754zm-7 179c208,0 302,258 207,575 -94,316 -341,575 -550,575 -208,0 -302,-259 -207,-575 94,-317 341,-575 550,-575z"></path>
   <path class="fil0 str0" d="M4026 14145l-183 1 0 1514 184 0c1134,6 1066,-1515 -1,-1515zm0 177l0 1156c862,5 862,-1156 0,-1156z"></path>
   <g>
    <path class="fil0 str0" d="M4889 14389c-19,24 -34,10 -33,-11 5,-110 59,-220 221,-226 220,-10 256,109 407,100 89,-8 155,-48 203,-111 13,-16 26,-15 29,13 6,123 -81,232 -241,232 -193,3 -239,-119 -391,-103 -46,2 -118,16 -195,106z"></path>
    <path class="fil0 str0" d="M4889 15652c-19,24 -34,10 -33,-11 5,-109 59,-220 221,-226 220,-10 256,109 407,100 89,-8 155,-48 203,-111 13,-16 26,-14 29,13 6,123 -81,232 -241,232 -193,3 -239,-119 -391,-103 -46,2 -118,16 -195,106z"></path>
    <polygon class="fil0 str0" points="5195,14287 5377,14287 5377,15507 5195,15507 "></polygon>
   </g>
   <g>
    <path class="fil0 str0" d="M15408 14389c-19,24 -34,10 -33,-11 5,-110 59,-220 221,-226 220,-10 256,109 407,100 89,-8 155,-48 203,-111 13,-16 26,-15 29,13 6,123 -81,232 -241,232 -193,3 -239,-119 -391,-103 -46,2 -118,16 -195,106z"></path>
    <path class="fil0 str0" d="M15408 15652c-19,24 -34,10 -33,-11 5,-109 59,-220 221,-226 220,-10 256,109 407,100 89,-8 155,-48 203,-111 13,-16 26,-14 29,13 6,123 -81,232 -241,232 -193,3 -239,-119 -391,-103 -46,2 -118,16 -195,106z"></path>
    <polygon class="fil0 str0" points="15714,14287 15896,14287 15896,15507 15714,15507 "></polygon>
   </g>
   <g>
    <g>
     <polygon class="fil0 str0" points="6312,14142 6408,14423 6018,15607 5820,15599 "></polygon>
     <polygon class="fil0 str0" points="6338,14145 6310,14145 6232,14407 6648,15653 6810,15566 "></polygon>
    </g>
    <g>
     <path class="fil0 str0" d="M6128 15275c-8,17 -15,8 -15,-8 3,-77 27,-155 101,-160 101,-7 117,69 186,63 40,-6 59,-26 92,-71 6,-11 12,-10 14,9 22,88 -37,165 -110,165 -88,3 -115,-67 -182,-67 -26,4 -51,14 -86,69z"></path>
     <g>
      <path class="fil0 str0" d="M5834 15656c-8,12 -25,5 -24,-6 2,-55 26,-110 98,-113 97,-5 108,42 175,37 39,-4 54,-8 82,-42 6,-8 20,-8 21,6 3,62 -31,116 -102,116 -85,2 -108,-47 -173,-46 -21,1 -40,13 -77,48z"></path>
      <path class="fil0 str0" d="M6671 15656c-8,12 -25,5 -24,-6 2,-55 26,-110 98,-113 98,-5 108,42 175,37 40,-4 54,-8 82,-42 6,-8 20,-8 21,6 3,62 -31,116 -102,116 -85,2 -108,-47 -173,-46 -21,1 -40,13 -77,48z"></path>
     </g>
    </g>
   </g>
   <g>
    <path class="fil0 str0" d="M14849 15656c-8,12 -25,5 -25,-6 2,-55 27,-110 98,-113 98,-5 109,42 176,37 39,-4 53,-8 82,-42 6,-8 19,-8 21,6 2,62 -31,116 -102,116 -86,2 -109,-47 -174,-46 -20,1 -39,13 -76,48z"></path>
    <path class="fil0 str0" d="M14438 14147l-183 0 0 842 183 0c763,6 766,-866 0,-842zm-1 177l0 484c520,4 534,-498 0,-484z"></path>
    <polygon class="fil0 str0" points="14255,14981 14437,14981 14437,15662 14255,15662 "></polygon>
    <polygon class="fil0 str0" points="14739,14925 14563,14974 14825,15656 14986,15564 "></polygon>
   </g>
   <g>
    <path class="fil0 str0" d="M13600 15656c-8,12 -25,5 -24,-6 2,-55 26,-110 98,-113 97,-5 108,42 175,37 40,-4 54,-8 82,-42 6,-8 20,-8 21,6 3,62 -31,116 -102,116 -85,2 -108,-47 -173,-46 -21,1 -40,13 -77,48z"></path>
    <polygon class="fil0 str0" points="13575,14294 13758,14294 13758,15555 13575,15652 "></polygon>
    <path class="fil0 str0" d="M13237 14389c-19,24 -34,10 -33,-11 5,-110 59,-220 221,-226 220,-10 256,109 407,100 89,-8 155,-48 203,-111 13,-16 26,-15 29,13 6,123 -81,232 -241,232 -193,3 -239,-119 -391,-103 -46,2 -118,16 -195,106z"></path>
   </g>
   <g>
    <path class="fil0 str0" d="M11073 15647c-21,27 -38,12 -37,-12 5,-121 66,-243 245,-249 243,-11 282,119 449,110 98,-9 171,-53 224,-123 14,-17 29,-16 32,14 7,136 -90,257 -266,257 -213,3 -264,-132 -432,-114 -51,2 -131,17 -215,117z"></path>
    <path class="fil0 str0" d="M11073 14426c-21,27 -38,11 -37,-12 5,-121 66,-243 245,-250 243,-11 282,120 449,111 98,-9 171,-53 224,-123 14,-18 29,-16 32,14 7,136 -90,257 -266,257 -213,3 -264,-132 -432,-115 -51,3 -131,18 -215,118z"></path>
    <path class="fil0 str0" d="M11085 14995c-13,18 -24,8 -23,-9 3,-83 41,-168 154,-173 154,-7 168,83 274,77 62,-6 108,-37 141,-85 10,-12 29,-11 31,10 5,94 -57,178 -168,178 -135,7 -167,-71 -273,-74 -32,1 -83,7 -136,76z"></path>
    <polygon class="fil0 str0" points="11036,14416 11219,14303 11219,15400 11036,15643 "></polygon>
   </g>
   <g>
    <path class="fil0 str0" d="M8774 15647c-21,27 -38,12 -37,-12 6,-121 66,-243 245,-249 243,-11 282,119 449,110 98,-9 171,-53 224,-123 14,-17 29,-16 32,14 7,136 -89,257 -266,257 -213,3 -264,-132 -432,-114 -50,2 -130,17 -215,117z"></path>
    <path class="fil0 str0" d="M8774 14426c-21,27 -38,11 -37,-12 6,-121 66,-243 245,-250 243,-11 282,120 449,111 98,-9 171,-53 224,-123 14,-18 29,-16 32,14 7,136 -89,257 -266,257 -213,3 -264,-132 -432,-115 -50,3 -130,18 -215,118z"></path>
    <path class="fil0 str0" d="M8786 14995c-13,18 -24,8 -23,-9 3,-83 41,-168 155,-173 153,-7 168,83 273,77 62,-6 109,-37 142,-85 9,-12 29,-11 31,10 4,94 -57,178 -169,178 -134,7 -167,-71 -273,-74 -32,1 -82,7 -136,76z"></path>
    <polygon class="fil0 str0" points="8738,14416 8920,14303 8920,15400 8738,15643 "></polygon>
   </g>
   <g>
    <path class="fil0 str0" d="M9919 15647c-21,27 -38,12 -37,-12 6,-121 66,-243 245,-249 243,-11 282,119 449,110 98,-9 171,-53 224,-123 14,-17 29,-16 32,14 8,136 -89,257 -265,257 -214,3 -265,-132 -433,-114 -50,2 -130,17 -215,117z"></path>
    <polygon class="fil0 str0" points="9883,14146 10065,14145 10065,15400 9883,15643 "></polygon>
   </g>
   <path class="fil0 str0" d="M7859 14426c10,24 56,24 49,0 -139,-362 -623,-385 -799,1 -146,306 -148,624 -6,956 192,392 658,351 804,0 10,-20 -42,-11 -48,0 -140,246 -376,266 -532,0 -162,-332 -142,-650 0,-956 170,-283 397,-230 532,-1z"></path>
   <path class="fil0 str0" d="M12970 14426c10,24 56,24 49,0 -139,-362 -623,-385 -799,1 -146,306 -148,624 -6,956 192,392 658,351 804,0 10,-20 -42,-11 -48,0 -140,246 -376,266 -532,0 -162,-332 -143,-650 0,-956 170,-283 397,-230 532,-1z"></path>
   <path class="fil0 str0" d="M17159 14426c10,24 57,24 49,0 -139,-362 -623,-385 -798,1 -147,306 -149,624 -7,956 192,392 658,351 804,0 11,-20 -41,-11 -47,0 -141,246 -377,266 -533,0 -162,-332 -142,-650 0,-956 170,-283 397,-230 532,-1z"></path>
   <path class="fil0 str0" d="M18745 14426c10,24 57,24 49,0 -139,-362 -622,-385 -798,1 -147,306 -149,624 -7,956 192,392 658,351 804,0 11,-20 -41,-11 -47,0 -141,246 -376,266 -532,0 -163,-332 -143,-650 -1,-956 170,-283 398,-230 532,-1z"></path>
   <path class="fil0 str0" d="M19339 14650c216,0 391,224 391,499 0,274 -175,499 -391,499 -215,0 -391,-225 -391,-499 0,-275 176,-499 391,-499zm0 184c117,0 211,141 211,315 0,173 -94,314 -211,314 -116,0 -211,-141 -211,-314 0,-174 95,-315 211,-315z"></path>
   <path class="fil0 str0" d="M19959 15412c56,0 102,45 102,101 0,56 -46,101 -102,101 -55,0 -101,-45 -101,-101 0,-56 46,-101 101,-101z"></path>
  </g>
 </g>
</svg>
